<mxfile host="app.diagrams.net" modified="2023-05-09T08:34:22.372Z" agent="Mozilla/5.0 (Windows NT 10.0; Win64; x64) AppleWebKit/537.36 (KHTML, like Gecko) Chrome/112.0.0.0 Safari/537.36" etag="_odPd3h2wB7mIbOsjyCk" version="21.2.9" type="github">
  <diagram name="第 1 页" id="0n1AUpLmMaGo---AUQDI">
    <mxGraphModel dx="1434" dy="788" grid="1" gridSize="10" guides="1" tooltips="1" connect="1" arrows="1" fold="1" page="1" pageScale="1" pageWidth="827" pageHeight="1169" math="0" shadow="0">
      <root>
        <mxCell id="0" />
        <mxCell id="1" parent="0" />
        <mxCell id="DEjv5ve3Qhqp_QlrKK6_-1" value="" style="rounded=0;whiteSpace=wrap;html=1;fillColor=#f5f5f5;fontColor=#333333;strokeColor=#666666;" vertex="1" parent="1">
          <mxGeometry x="159.5" y="85" width="509" height="320" as="geometry" />
        </mxCell>
        <mxCell id="DEjv5ve3Qhqp_QlrKK6_-8" style="edgeStyle=orthogonalEdgeStyle;rounded=0;orthogonalLoop=1;jettySize=auto;html=1;exitX=1;exitY=0.25;exitDx=0;exitDy=0;entryX=0;entryY=0.25;entryDx=0;entryDy=0;" edge="1" parent="1" source="DEjv5ve3Qhqp_QlrKK6_-2" target="DEjv5ve3Qhqp_QlrKK6_-3">
          <mxGeometry relative="1" as="geometry" />
        </mxCell>
        <mxCell id="DEjv5ve3Qhqp_QlrKK6_-9" style="edgeStyle=orthogonalEdgeStyle;rounded=0;orthogonalLoop=1;jettySize=auto;html=1;exitX=1;exitY=0.75;exitDx=0;exitDy=0;entryX=0;entryY=0.75;entryDx=0;entryDy=0;" edge="1" parent="1" source="DEjv5ve3Qhqp_QlrKK6_-2" target="DEjv5ve3Qhqp_QlrKK6_-3">
          <mxGeometry relative="1" as="geometry" />
        </mxCell>
        <mxCell id="DEjv5ve3Qhqp_QlrKK6_-10" style="edgeStyle=orthogonalEdgeStyle;rounded=0;orthogonalLoop=1;jettySize=auto;html=1;exitX=0.5;exitY=0;exitDx=0;exitDy=0;entryX=0.5;entryY=1;entryDx=0;entryDy=0;" edge="1" parent="1" source="DEjv5ve3Qhqp_QlrKK6_-2" target="DEjv5ve3Qhqp_QlrKK6_-4">
          <mxGeometry relative="1" as="geometry" />
        </mxCell>
        <mxCell id="DEjv5ve3Qhqp_QlrKK6_-11" style="edgeStyle=orthogonalEdgeStyle;rounded=0;orthogonalLoop=1;jettySize=auto;html=1;exitX=0.5;exitY=1;exitDx=0;exitDy=0;entryX=0.5;entryY=0;entryDx=0;entryDy=0;" edge="1" parent="1" source="DEjv5ve3Qhqp_QlrKK6_-2" target="DEjv5ve3Qhqp_QlrKK6_-6">
          <mxGeometry relative="1" as="geometry" />
        </mxCell>
        <mxCell id="DEjv5ve3Qhqp_QlrKK6_-2" value="中完整性" style="rounded=1;whiteSpace=wrap;html=1;fillColor=#dae8fc;strokeColor=#6c8ebf;" vertex="1" parent="1">
          <mxGeometry x="210" y="220" width="120" height="50" as="geometry" />
        </mxCell>
        <mxCell id="DEjv5ve3Qhqp_QlrKK6_-12" style="edgeStyle=orthogonalEdgeStyle;rounded=0;orthogonalLoop=1;jettySize=auto;html=1;exitX=0.5;exitY=1;exitDx=0;exitDy=0;entryX=0.5;entryY=0;entryDx=0;entryDy=0;" edge="1" parent="1" source="DEjv5ve3Qhqp_QlrKK6_-3" target="DEjv5ve3Qhqp_QlrKK6_-7">
          <mxGeometry relative="1" as="geometry" />
        </mxCell>
        <mxCell id="DEjv5ve3Qhqp_QlrKK6_-13" style="edgeStyle=orthogonalEdgeStyle;rounded=0;orthogonalLoop=1;jettySize=auto;html=1;exitX=0.5;exitY=0;exitDx=0;exitDy=0;entryX=0.5;entryY=1;entryDx=0;entryDy=0;" edge="1" parent="1" source="DEjv5ve3Qhqp_QlrKK6_-3" target="DEjv5ve3Qhqp_QlrKK6_-5">
          <mxGeometry relative="1" as="geometry" />
        </mxCell>
        <mxCell id="DEjv5ve3Qhqp_QlrKK6_-3" value="中完整性" style="rounded=1;whiteSpace=wrap;html=1;fillColor=#fff2cc;strokeColor=#d6b656;" vertex="1" parent="1">
          <mxGeometry x="500" y="220" width="120" height="50" as="geometry" />
        </mxCell>
        <mxCell id="DEjv5ve3Qhqp_QlrKK6_-4" value="高完整性" style="rounded=1;whiteSpace=wrap;html=1;fillColor=#dae8fc;strokeColor=#6c8ebf;" vertex="1" parent="1">
          <mxGeometry x="210" y="120" width="120" height="50" as="geometry" />
        </mxCell>
        <mxCell id="DEjv5ve3Qhqp_QlrKK6_-5" value="高完整性" style="rounded=1;whiteSpace=wrap;html=1;fillColor=#fff2cc;strokeColor=#d6b656;" vertex="1" parent="1">
          <mxGeometry x="500" y="120" width="120" height="50" as="geometry" />
        </mxCell>
        <mxCell id="DEjv5ve3Qhqp_QlrKK6_-6" value="低完整性" style="rounded=1;whiteSpace=wrap;html=1;fillColor=#dae8fc;strokeColor=#6c8ebf;" vertex="1" parent="1">
          <mxGeometry x="210" y="320" width="120" height="50" as="geometry" />
        </mxCell>
        <mxCell id="DEjv5ve3Qhqp_QlrKK6_-7" value="低完整性" style="rounded=1;whiteSpace=wrap;html=1;fillColor=#fff2cc;strokeColor=#d6b656;" vertex="1" parent="1">
          <mxGeometry x="500" y="320" width="120" height="50" as="geometry" />
        </mxCell>
        <mxCell id="DEjv5ve3Qhqp_QlrKK6_-14" value="&lt;font style=&quot;font-size: 10px;&quot;&gt;允许读&lt;/font&gt;" style="text;html=1;strokeColor=none;fillColor=none;align=center;verticalAlign=middle;whiteSpace=wrap;rounded=0;" vertex="1" parent="1">
          <mxGeometry x="200" y="180" width="60" height="30" as="geometry" />
        </mxCell>
        <mxCell id="DEjv5ve3Qhqp_QlrKK6_-15" value="&lt;font style=&quot;font-size: 10px;&quot;&gt;禁止读&lt;/font&gt;" style="text;html=1;strokeColor=none;fillColor=none;align=center;verticalAlign=middle;whiteSpace=wrap;rounded=0;" vertex="1" parent="1">
          <mxGeometry x="200" y="280" width="60" height="30" as="geometry" />
        </mxCell>
        <mxCell id="DEjv5ve3Qhqp_QlrKK6_-16" value="禁止写" style="text;html=1;strokeColor=none;fillColor=none;align=center;verticalAlign=middle;whiteSpace=wrap;rounded=0;" vertex="1" parent="1">
          <mxGeometry x="570" y="180" width="60" height="30" as="geometry" />
        </mxCell>
        <mxCell id="DEjv5ve3Qhqp_QlrKK6_-17" value="允许写" style="text;html=1;strokeColor=none;fillColor=none;align=center;verticalAlign=middle;whiteSpace=wrap;rounded=0;" vertex="1" parent="1">
          <mxGeometry x="570" y="280" width="60" height="30" as="geometry" />
        </mxCell>
        <mxCell id="DEjv5ve3Qhqp_QlrKK6_-18" value="允许写" style="text;html=1;strokeColor=none;fillColor=none;align=center;verticalAlign=middle;whiteSpace=wrap;rounded=0;" vertex="1" parent="1">
          <mxGeometry x="384" y="200" width="60" height="30" as="geometry" />
        </mxCell>
        <mxCell id="DEjv5ve3Qhqp_QlrKK6_-19" value="允许读" style="text;html=1;strokeColor=none;fillColor=none;align=center;verticalAlign=middle;whiteSpace=wrap;rounded=0;" vertex="1" parent="1">
          <mxGeometry x="384" y="260" width="60" height="30" as="geometry" />
        </mxCell>
      </root>
    </mxGraphModel>
  </diagram>
</mxfile>
